<svg width="71" height="28" viewBox="0 0 71 28" fill="none" xmlns="http://www.w3.org/2000/svg">
<g style="mix-blend-mode:hard-light">
<path fill-rule="evenodd" clip-rule="evenodd" d="M52.8025 11.7738H60.8338V9.09524H56.4166L60.8338 3.25991V0.613281H53.1265L51.3965 3.25991H57.2197L52.8025 9.09524V11.7738ZM69.539 3.27735L70.7367 0.630723H61.5078V11.7912H69.539V9.11268H64.5918V7.35889H69.1214V4.96736H64.5918V3.27735H69.539Z" fill="white"/>
</g>
<path fill-rule="evenodd" clip-rule="evenodd" d="M20.2892 1.75094C21.135 2.66321 21.6571 3.86206 21.6788 5.17657V5.33485L21.6707 5.47891C21.619 6.70404 21.1322 7.82138 20.3545 8.69159C19.6502 9.4803 18.7066 10.064 17.6351 10.34C17.1892 10.4557 16.7214 10.5161 16.2374 10.5161H5.43603C4.95198 10.5161 4.48425 10.4557 4.03827 10.34C3.58605 10.2246 3.1566 10.0535 2.7583 9.8349V11.1209C2.7583 11.8826 2.14085 12.5 1.37917 12.5C0.6175 12.5 4.19617e-05 11.8826 4.19617e-05 11.1209V5.42805C4.19617e-05 5.41158 0.00033073 5.39517 0.000903479 5.37884L0 5.32906V5.17657C0.021755 3.86206 0.543875 2.66321 1.3896 1.75094C2.22989 0.84655 3.39106 0.223468 4.69636 0.0499515C4.93838 0.0157741 5.18584 0 5.43874 0H16.2401C16.493 0 16.7405 0.0184031 16.9825 0.0499515C18.2905 0.223468 19.449 0.84655 20.2892 1.75094ZM2.7232 5.11752C2.77226 4.21938 3.28864 3.43977 4.04099 3.00236C4.44889 2.76575 4.9275 2.62904 5.43874 2.62904H16.2401C16.7513 2.62904 17.2272 2.76575 17.6378 3.00236C18.4292 3.46244 18.9595 4.3011 18.9595 5.25807C18.9595 6.21504 18.4292 7.0537 17.6378 7.51379C17.2299 7.7504 16.7513 7.88711 16.2401 7.88711H5.43874C4.9275 7.88711 4.45161 7.7504 4.04099 7.51379C3.37514 7.12666 2.89412 6.47151 2.7583 5.70337V5.42805C2.7583 5.32127 2.74617 5.21733 2.7232 5.11752ZM34.8039 10.8319C34.9495 10.4402 35.3233 10.1803 35.7413 10.1803H38.2404C38.6632 10.1803 39.0403 10.4462 39.1823 10.8444L39.2772 11.1105C39.4192 11.5087 39.7963 11.7746 40.2191 11.7746H41.4295C42.1376 11.7746 42.6214 11.0589 42.3574 10.4018L38.677 1.24133C38.5248 0.86242 38.1575 0.614136 37.7491 0.614136H36.2184C35.8101 0.614136 35.4428 0.862421 35.2905 1.24133L31.6101 10.4018C31.3462 11.0589 31.8299 11.7746 32.5381 11.7746H33.7584C34.1763 11.7746 34.5501 11.5147 34.6957 11.123L34.8039 10.8319ZM37.7366 6.77827C37.9122 7.27084 37.547 7.78873 37.024 7.78873C36.4965 7.78873 36.131 7.26242 36.3151 6.7681C36.5616 6.10661 37.4996 6.11331 37.7366 6.77827ZM48.3468 6.75484C48.3468 6.56161 48.4028 6.37251 48.508 6.21042L51.1266 2.17583C51.5584 1.51054 51.0809 0.631409 50.2878 0.631409H49.1315C48.7927 0.631409 48.4769 0.802994 48.2925 1.08728L47.5763 2.19162C47.1821 2.79945 46.2925 2.79945 45.8983 2.19162L45.1821 1.08728C44.9978 0.802994 44.682 0.631409 44.3431 0.631409H43.1869C42.3938 0.631409 41.9163 1.51054 42.3481 2.17583L44.9667 6.21042C45.0719 6.37251 45.1279 6.56161 45.1279 6.75484V10.7919C45.1279 11.3442 45.5756 11.7919 46.1279 11.7919H47.3468C47.8991 11.7919 48.3468 11.3442 48.3468 10.7919V6.75484ZM13.85 6.86318C14.2375 6.86318 14.5516 6.55091 14.5516 6.1657C14.5516 5.78049 14.2375 5.46822 13.85 5.46822C13.4625 5.46822 13.1484 5.78049 13.1484 6.1657C13.1484 6.55091 13.4625 6.86318 13.85 6.86318ZM16.4089 4.4786C16.4089 4.86381 16.0947 5.17608 15.7073 5.17608C15.3198 5.17608 15.0057 4.86381 15.0057 4.4786C15.0057 4.09339 15.3198 3.78112 15.7073 3.78112C16.0947 3.78112 16.4089 4.09339 16.4089 4.4786ZM9.24828 5.32227C9.24828 5.64668 8.9845 5.90891 8.65817 5.90891H8.11158V6.4523C8.11158 6.77671 7.8478 7.03894 7.52148 7.03894C7.19515 7.03894 6.93137 6.77671 6.93137 6.4523V5.90891H6.38478C6.05845 5.90891 5.79467 5.64668 5.79467 5.32227C5.79467 4.99785 6.05845 4.73562 6.38478 4.73562H6.93137V4.19223C6.93137 3.86782 7.19515 3.60559 7.52148 3.60559C7.8478 3.60559 8.11158 3.86782 8.11158 4.19223V4.73562H8.65817C8.9845 4.73562 9.24828 4.99785 9.24828 5.32227ZM25.4687 1.61416C25.4687 1.06188 25.021 0.614164 24.4687 0.614164H23.3526C22.8003 0.614164 22.3526 1.06188 22.3526 1.61417V10.7746C22.3526 11.3269 22.8003 11.7746 23.3526 11.7746H29.4054C29.8029 11.7746 30.1627 11.5392 30.3218 11.1749L30.646 10.4326C30.9345 9.77197 30.4504 9.03235 29.7296 9.03235H26.4687C25.9164 9.03235 25.4687 8.58463 25.4687 8.03235V1.61416Z" fill="#C9FF58"/>
<path d="M65.7283 27.3461C65.1467 27.3461 64.7148 27.205 64.4326 26.9227C64.1546 26.6405 64.0156 26.2064 64.0156 25.6206C64.0156 25.3511 64.1503 25.2164 64.4197 25.2164C64.6892 25.2164 64.8239 25.3511 64.8239 25.6206C64.8239 25.9798 64.8859 26.2214 65.0099 26.3454C65.1339 26.4737 65.3734 26.5379 65.7283 26.5379H68.0376C68.3926 26.5379 68.632 26.4737 68.7561 26.3454C68.8801 26.2214 68.9421 25.9798 68.9421 25.6206V23.9014C68.6983 24.2436 68.3968 24.4766 68.0376 24.6006C67.6784 24.7247 67.2678 24.7867 66.806 24.7867H66.357C65.5487 24.7867 64.9564 24.5985 64.5801 24.2222C64.2038 23.8458 64.0156 23.2578 64.0156 22.4581V18.9686C64.0156 18.6992 64.1503 18.5645 64.4197 18.5645C64.6892 18.5645 64.8239 18.6992 64.8239 18.9686V22.4581C64.8239 23.0355 64.9329 23.4332 65.151 23.6513C65.3734 23.8694 65.7754 23.9784 66.357 23.9784H66.806C67.5415 23.9784 68.0804 23.8523 68.4225 23.5999C68.7689 23.3476 68.9421 22.967 68.9421 22.4581V18.9686C68.9421 18.6992 69.0768 18.5645 69.3462 18.5645C69.6156 18.5645 69.7503 18.6992 69.7503 18.9686V25.6206C69.7503 26.2064 69.6092 26.6405 69.327 26.9227C69.049 27.205 68.6192 27.3461 68.0376 27.3461H65.7283Z" fill="white"/>
<path d="M61.8428 24.7807C61.0346 24.7807 60.4423 24.5925 60.066 24.2162C59.6896 23.8398 59.5015 23.2518 59.5015 22.4521V19.3795H58.783C58.5136 19.3795 58.3789 19.2448 58.3789 18.9754C58.3789 18.706 58.5136 18.5713 58.783 18.5713H59.5015V17.3397C59.5015 17.0703 59.6362 16.9355 59.9056 16.9355C60.175 16.9355 60.3097 17.0703 60.3097 17.3397V18.5713H61.8749C62.1443 18.5713 62.279 18.706 62.279 18.9754C62.279 19.2448 62.1443 19.3795 61.8749 19.3795H60.3097V22.4521C60.3097 23.0295 60.4209 23.4272 60.6433 23.6453C60.8657 23.8634 61.2655 23.9724 61.8428 23.9724C61.9839 23.9724 62.0866 24.0066 62.1507 24.075C62.2191 24.1392 62.2534 24.2397 62.2534 24.3765C62.2534 24.646 62.1165 24.7807 61.8428 24.7807Z" fill="white"/>
<path d="M56.2308 17.4425C55.8973 17.4425 55.7305 17.2736 55.7305 16.9358V16.615C55.7305 16.2857 55.8973 16.1211 56.2308 16.1211H56.5451C56.8659 16.1211 57.0262 16.2857 57.0262 16.615V16.9358C57.0262 17.2736 56.8659 17.4425 56.5451 17.4425H56.2308ZM56.3848 24.7809C56.1153 24.7809 55.9806 24.6462 55.9806 24.3767V18.9756C55.9806 18.7062 56.1153 18.5715 56.3848 18.5715C56.6542 18.5715 56.7889 18.7062 56.7889 18.9756V24.3767C56.7889 24.6462 56.6542 24.7809 56.3848 24.7809Z" fill="white"/>
<path d="M48.3299 24.7816C48.0605 24.7816 47.9258 24.6469 47.9258 24.3775V18.9764C47.9258 18.707 48.0605 18.5723 48.3299 18.5723C48.5993 18.5723 48.734 18.707 48.734 18.9764V19.4511C49.1574 18.8652 49.8694 18.5723 50.8701 18.5723H51.2293C52.0504 18.5723 52.6512 18.7647 53.0318 19.1496C53.4167 19.5302 53.6092 20.131 53.6092 20.9521V24.3775C53.6092 24.6469 53.4744 24.7816 53.205 24.7816C52.9356 24.7816 52.8009 24.6469 52.8009 24.3775V20.9521C52.8009 20.3577 52.6854 19.9471 52.4545 19.7205C52.2279 19.4938 51.8195 19.3805 51.2293 19.3805H50.8701C50.2586 19.3805 49.7625 19.4703 49.3819 19.6499C49.0013 19.8295 48.7853 20.1096 48.734 20.4902V24.3775C48.734 24.6469 48.5993 24.7816 48.3299 24.7816Z" fill="white"/>
<path d="M45.0273 18.5723C45.2967 18.5723 45.4314 18.707 45.4314 18.9764V24.3775C45.4314 24.6469 45.2967 24.7816 45.0273 24.7816C44.7579 24.7816 44.6232 24.6469 44.6232 24.3775V23.8964C44.2041 24.4866 43.4921 24.7816 42.4871 24.7816H42.1279C41.3111 24.7816 40.7102 24.5892 40.3254 24.2043C39.9405 23.8194 39.748 23.2186 39.748 22.4018V18.9764C39.748 18.707 39.8828 18.5723 40.1522 18.5723C40.4216 18.5723 40.5563 18.707 40.5563 18.9764V22.4018C40.5563 22.992 40.6696 23.4025 40.8963 23.6334C41.1272 23.8601 41.5377 23.9734 42.1279 23.9734H42.4871C43.0986 23.9734 43.5947 23.8836 43.9753 23.704C44.3602 23.5201 44.5761 23.24 44.6232 22.8637V18.9764C44.6232 18.707 44.7579 18.5723 45.0273 18.5723Z" fill="white"/>
<path d="M35.4568 18.5645C36.1881 18.5645 36.7098 18.7441 37.022 19.1033C37.3385 19.4625 37.4967 20.0591 37.4967 20.893V24.3825C37.4967 24.652 37.362 24.7867 37.0926 24.7867C36.8232 24.7867 36.6885 24.652 36.6885 24.3825V20.893C36.6885 20.3541 36.5922 19.9671 36.3998 19.7319C36.2116 19.4924 35.8973 19.3727 35.4568 19.3727H34.9244C34.3899 19.3727 34.0071 19.4924 33.7762 19.7319C33.5453 19.9671 33.4298 20.3541 33.4298 20.893V24.3825C33.4298 24.652 33.2951 24.7867 33.0257 24.7867C32.7563 24.7867 32.6216 24.652 32.6216 24.3825V20.893C32.6216 20.3541 32.5254 19.9671 32.3329 19.7319C32.1448 19.4924 31.8304 19.3727 31.39 19.3727H30.8575C30.323 19.3727 29.9403 19.4924 29.7093 19.7319C29.4784 19.9671 29.3629 20.3541 29.3629 20.893V24.3825C29.3629 24.652 29.2282 24.7867 28.9588 24.7867C28.6894 24.7867 28.5547 24.652 28.5547 24.3825V18.975C28.5547 18.7056 28.6894 18.5709 28.9588 18.5709C29.2282 18.5709 29.3629 18.7056 29.3629 18.975V19.4048C29.5639 19.1054 29.7949 18.8916 30.0557 18.7633C30.3209 18.6307 30.648 18.5645 31.0372 18.5645H31.39C31.8646 18.5645 32.2431 18.6414 32.5254 18.7954C32.8119 18.9451 33.0342 19.1931 33.1925 19.5395C33.3892 19.1888 33.6223 18.9386 33.8917 18.789C34.1611 18.6393 34.5053 18.5645 34.9244 18.5645H35.4568Z" fill="white"/>
<path d="M24.1443 18.5645C24.8756 18.5645 25.3973 18.7441 25.7095 19.1033C26.026 19.4625 26.1842 20.0591 26.1842 20.893V24.3825C26.1842 24.652 26.0495 24.7867 25.7801 24.7867C25.5107 24.7867 25.376 24.652 25.376 24.3825V20.893C25.376 20.3541 25.2797 19.9671 25.0873 19.7319C24.8991 19.4924 24.5848 19.3727 24.1443 19.3727H23.6119C23.0774 19.3727 22.6946 19.4924 22.4637 19.7319C22.2328 19.9671 22.1173 20.3541 22.1173 20.893V24.3825C22.1173 24.652 21.9826 24.7867 21.7132 24.7867C21.4438 24.7867 21.3091 24.652 21.3091 24.3825V20.893C21.3091 20.3541 21.2129 19.9671 21.0204 19.7319C20.8323 19.4924 20.5179 19.3727 20.0775 19.3727H19.545C19.0105 19.3727 18.6278 19.4924 18.3968 19.7319C18.1659 19.9671 18.0504 20.3541 18.0504 20.893V24.3825C18.0504 24.652 17.9157 24.7867 17.6463 24.7867C17.3769 24.7867 17.2422 24.652 17.2422 24.3825V18.975C17.2422 18.7056 17.3769 18.5709 17.6463 18.5709C17.9157 18.5709 18.0504 18.7056 18.0504 18.975V19.4048C18.2514 19.1054 18.4824 18.8916 18.7432 18.7633C19.0084 18.6307 19.3355 18.5645 19.7247 18.5645H20.0775C20.5521 18.5645 20.9306 18.6414 21.2129 18.7954C21.4994 18.9451 21.7217 19.1931 21.88 19.5395C22.0767 19.1888 22.3098 18.9386 22.5792 18.789C22.8486 18.6393 23.1928 18.5645 23.6119 18.5645H24.1443Z" fill="white"/>
<path d="M11.5361 24.7817C10.7193 24.7817 10.1184 24.5893 9.73357 24.2044C9.34869 23.8195 9.15625 23.223 9.15625 22.4147V20.9522C9.15625 20.1268 9.34869 19.5238 9.73357 19.1432C10.1184 18.7584 10.7193 18.5681 11.5361 18.5723H12.5881C13.4092 18.5723 14.01 18.7648 14.3906 19.1497C14.7755 19.5303 14.9679 20.1311 14.9679 20.9522V22.4019C14.9679 23.2187 14.7755 23.8195 14.3906 24.2044C14.01 24.5893 13.4092 24.7817 12.5881 24.7817H11.5361ZM9.9645 22.4147C9.9645 23.0006 10.0778 23.4068 10.3045 23.6335C10.5354 23.8601 10.9459 23.9735 11.5361 23.9735H12.5881C13.1825 23.9735 13.593 23.8601 13.8197 23.6335C14.0463 23.4026 14.1597 22.992 14.1597 22.4019V20.9522C14.1597 20.3577 14.0463 19.9472 13.8197 19.7206C13.593 19.4939 13.1825 19.3806 12.5881 19.3806H11.5361C11.1427 19.3763 10.8305 19.4233 10.5995 19.5217C10.3729 19.6158 10.2104 19.7783 10.112 20.0092C10.0137 20.2359 9.9645 20.5502 9.9645 20.9522V22.4147Z" fill="white"/>
<path d="M3.73905 24.7808C2.79396 24.7808 2.10118 24.5605 1.66071 24.12C1.22024 23.6796 1 22.9868 1 22.0417V19.1102C1 18.1566 1.22024 17.4616 1.66071 17.0254C2.10118 16.585 2.78969 16.3669 3.72622 16.3712H5.27857C6.07398 16.3712 6.67055 16.5358 7.06826 16.8651C7.46596 17.1901 7.68834 17.714 7.73538 18.4367C7.75248 18.5692 7.72683 18.6719 7.6584 18.7446C7.58998 18.8173 7.48735 18.8536 7.3505 18.8536C7.10247 18.8536 6.96134 18.7189 6.92713 18.4495C6.89292 17.962 6.74966 17.6284 6.49735 17.4488C6.24932 17.2692 5.84306 17.1794 5.27857 17.1794H3.72622C3.24726 17.1751 2.8688 17.2329 2.59083 17.3526C2.31286 17.4723 2.11187 17.6733 1.98786 17.9556C1.86812 18.2378 1.80825 18.6227 1.80825 19.1102V22.0417C1.80825 22.5207 1.86812 22.9013 1.98786 23.1835C2.11187 23.4658 2.315 23.6689 2.59725 23.7929C2.87949 23.9126 3.26009 23.9725 3.73905 23.9725H5.27857C5.84306 23.9725 6.24932 23.8827 6.49735 23.7031C6.74966 23.5192 6.89292 23.1856 6.92713 22.7024C6.96134 22.433 7.10247 22.2983 7.3505 22.2983C7.48735 22.2983 7.58998 22.3346 7.6584 22.4073C7.72683 22.4758 7.75248 22.5784 7.73538 22.7152C7.68834 23.4337 7.46596 23.9575 7.06826 24.2868C6.67055 24.6161 6.07398 24.7808 5.27857 24.7808H3.73905Z" fill="white"/>
</svg>
