<svg width="17" height="16" viewBox="0 0 17 16" fill="none" xmlns="http://www.w3.org/2000/svg">
<g clip-path="url(#clip0_1089_1640)">
<path d="M15.5 3.91376V6.6997C15.0133 6.65214 14.3808 6.54153 13.6811 6.28516C12.7676 5.95023 12.0876 5.4923 11.6422 5.13772V10.7685L11.6308 10.7509C11.638 10.8626 11.6422 10.9763 11.6422 11.091C11.6422 13.8873 9.36757 16.1636 6.57109 16.1636C3.7746 16.1636 1.5 13.8873 1.5 11.091C1.5 8.29476 3.7746 6.01744 6.57109 6.01744C6.84495 6.01744 7.11364 6.03914 7.37614 6.08152V8.82715C7.12398 8.73721 6.85321 8.68862 6.57109 8.68862C5.24725 8.68862 4.16937 9.76578 4.16937 11.091C4.16937 12.4163 5.24725 13.4935 6.57109 13.4935C7.89492 13.4935 8.9728 12.4153 8.9728 11.091C8.9728 11.0414 8.97177 10.9918 8.96866 10.9422V0H11.7517C11.762 0.235693 11.7714 0.473466 11.7817 0.709159C11.8003 1.17331 11.9656 1.61886 12.254 1.98377C12.5919 2.41278 13.0911 2.91102 13.7917 3.30901C14.448 3.68013 15.0639 3.84037 15.5 3.91583V3.91376Z" fill="white"/>
</g>
<defs>
<clipPath id="clip0_1089_1640">
<rect width="16" height="16" fill="white" transform="translate(0.5)"/>
</clipPath>
</defs>
</svg>
