<svg width="75" height="75" viewBox="0 0 75 75" fill="none" xmlns="http://www.w3.org/2000/svg">
<path d="M73.9555 26.3785C76.0793 33.2532 72.2421 40.526 65.3712 42.6486L53.8625 46.2041L57.4199 57.7192C59.5437 64.5938 55.7064 71.8667 48.8356 73.9893C41.9647 76.112 34.6939 72.2708 32.5701 65.3961L29.0127 53.881L17.504 57.4365C10.6331 59.5591 3.36235 55.7179 1.23853 48.8433C-0.885285 41.9686 2.95194 34.6958 9.82284 32.5731L21.3316 29.0177L17.7742 17.5026C15.6504 10.6279 19.4876 3.35513 26.3585 1.23247C33.2294 -0.890181 40.5001 2.951 42.6239 9.82566L46.1813 21.3407L57.6901 17.7853C64.561 15.6627 71.8317 19.5039 73.9555 26.3785Z" fill="#C9FF58"/>
</svg>
