<svg width="35" height="35" viewBox="0 0 35 35" fill="none" xmlns="http://www.w3.org/2000/svg">
<path d="M34.3201 20.7257C33.6827 23.9351 30.5745 26.0143 27.3669 25.3772L21.9942 24.31L20.9264 29.6857C20.289 32.8951 17.1809 34.9743 13.9733 34.3372C10.7657 33.7001 8.68811 30.5909 9.32557 27.3815L10.3933 22.0058L5.02057 20.9386C1.81296 20.3015 -0.26459 17.1923 0.372869 13.9829C1.01033 10.7736 4.11843 8.69431 7.32605 9.33142L12.6988 10.3986L13.7665 5.02287C14.404 1.8135 17.5121 -0.265735 20.7197 0.371375C23.9273 1.00849 26.0049 4.11771 25.3674 7.32709L24.2997 12.7028L29.6724 13.77C32.88 14.4071 34.9576 17.5163 34.3201 20.7257Z" fill="#C9FF58"/>
</svg>
