<svg width="17" height="16" viewBox="0 0 17 16" fill="none" xmlns="http://www.w3.org/2000/svg">
<g clip-path="url(#clip0_1089_1646)">
<path d="M16.3636 4.28916C16.2654 2.92868 16.0539 1.42472 15.2756 0.634352C14.6727 0.0214425 13.8803 -0.00121614 13.1406 4.24012e-05C11.5769 0.00130094 10.0123 0.00382294 8.44865 0.00508148C6.94462 0.00759857 5.44059 0.00886326 3.93657 0.0113803C3.30828 0.0126389 2.69754 -0.0578333 2.11401 0.332315C1.61296 0.667087 1.22072 1.30389 0.984676 2.01245C0.657371 2.99789 0.58893 4.11423 0.549443 5.20412C0.476611 7.18885 0.484508 9.17861 0.57138 11.1621C0.635437 12.6094 0.797771 14.209 1.57786 15.1315C2.26933 15.9483 3.2451 15.9886 4.1419 15.9898C6.98849 15.9936 9.83597 15.9974 12.6834 15.9999C13.0485 16.0012 13.4293 15.9911 13.8014 15.9332C14.5332 15.8199 15.2308 15.5191 15.7011 14.7414C16.1759 13.9573 16.2978 12.8661 16.3698 11.8329C16.5453 9.32584 16.5435 6.79492 16.3636 4.28916ZM6.80247 11.5144V4.4855L11.046 7.99934L6.80247 11.5144Z" fill="white"/>
</g>
<defs>
<clipPath id="clip0_1089_1646">
<rect width="16" height="16" fill="white" transform="translate(0.5)"/>
</clipPath>
</defs>
</svg>
