<svg width="520" height="218" viewBox="0 0 520 218" fill="none" xmlns="http://www.w3.org/2000/svg">
<path d="M518.874 69.0419C519.328 69.0419 519.63 69.5094 519.444 69.9228L512.386 85.6117C512.285 85.836 512.062 85.9803 511.816 85.9803H481.366C481.021 85.9803 480.741 86.26 480.741 86.605V96.1716C480.741 96.5167 481.021 96.7964 481.366 96.7964H508.937C509.283 96.7964 509.563 97.0761 509.563 97.4211V111.477C509.563 111.822 509.283 112.102 508.937 112.102H481.366C481.021 112.102 480.741 112.382 480.741 112.727V122.702C480.741 123.047 481.021 123.326 481.366 123.326H511.595C511.94 123.326 512.22 123.606 512.22 123.951V139.844C512.22 140.189 511.94 140.469 511.595 140.469H461.743C461.397 140.469 461.117 140.189 461.117 139.844V69.6666C461.117 69.3216 461.397 69.0419 461.743 69.0419H518.874Z" fill="white"/>
<path d="M456.829 139.732C456.829 140.077 456.549 140.357 456.204 140.357H406.352C406.007 140.357 405.727 140.077 405.727 139.732V123.423C405.727 123.288 405.771 123.156 405.852 123.048L433.08 86.8688C433.39 86.457 433.096 85.8685 432.581 85.8685H397.932C397.436 85.8685 397.137 85.319 397.407 84.9034L407.603 69.2145C407.718 69.0371 407.916 68.9301 408.127 68.9301H456.204C456.549 68.9301 456.829 69.2098 456.829 69.5548V85.6597C456.829 85.7952 456.785 85.927 456.704 86.0353L429.476 122.214C429.166 122.626 429.46 123.215 429.975 123.215H456.204C456.549 123.215 456.829 123.494 456.829 123.839V139.732Z" fill="white"/>
<g filter="url(#filter0_d_15_1092)">
<path d="M377.475 106.181C377.41 106.282 377.375 106.4 377.375 106.52V139.843C377.375 140.188 377.095 140.468 376.75 140.468H357.519C357.173 140.468 356.893 140.188 356.893 139.843V106.52C356.893 106.4 356.859 106.282 356.794 106.181L333.449 70.0043C333.181 69.5885 333.48 69.0409 333.975 69.0409H355.017C355.229 69.0409 355.427 69.1488 355.542 69.3273L366.609 86.4908C366.855 86.8726 367.414 86.8726 367.66 86.4908L378.727 69.3273C378.842 69.1488 379.04 69.0409 379.252 69.0409H400.294C400.789 69.0409 401.087 69.5885 400.819 70.0043L377.475 106.181Z" fill="#C9FF58"/>
<path d="M293.179 130.154C292.917 130.154 292.683 130.317 292.593 130.562L289.124 139.949C289.034 140.195 288.8 140.358 288.538 140.358H268.294C267.852 140.358 267.55 139.912 267.714 139.501L295.745 69.3238C295.84 69.0864 296.07 68.9307 296.326 68.9307H313.82C314.076 68.9307 314.306 69.0864 314.401 69.3238L342.432 139.501C342.596 139.912 342.294 140.358 341.852 140.358H321.614C321.349 140.358 321.113 140.191 321.025 139.942L317.703 130.57C317.614 130.321 317.378 130.154 317.113 130.154H293.179ZM311.27 114.848C311.702 114.848 312.004 114.421 311.859 114.015L306.006 97.495C305.811 96.9443 305.033 96.9387 304.83 97.4867L298.711 114.006C298.559 114.414 298.861 114.848 299.297 114.848H311.27Z" fill="#C9FF58"/>
<path d="M68.5002 99.6828C68.5002 94.8394 72.4291 90.913 77.2755 90.913C82.122 90.913 86.0508 94.8394 86.0508 99.6828V136.23C86.0508 141.074 82.122 145 77.2755 145C72.4291 145 68.5002 141.074 68.5002 136.23V99.6828Z" fill="#C9FF58"/>
<path d="M206.446 98.1173C206.307 89.7076 202.985 82.038 197.604 76.2017C192.257 70.4158 184.885 66.4296 176.562 65.3196C175.022 65.1177 173.447 65 171.838 65H103.108C101.498 65 99.9237 65.1009 98.3836 65.3196C90.0778 66.4296 82.6891 70.4158 77.3422 76.2017C71.9608 82.038 68.6384 89.7076 68.5 98.1173L68.5 99.0928L68.5173 100.052C68.8461 107.889 71.9608 115.038 76.8923 120.605C81.374 125.651 87.3784 129.401 94.1961 131.151C97.0339 131.891 100.01 132.277 103.09 132.277H171.821C174.901 132.277 177.877 131.891 180.715 131.151C187.533 129.385 193.537 125.651 198.019 120.605C202.968 115.038 206.065 107.889 206.394 100.052L206.446 99.1299V98.1173ZM103.108 115.458C99.8545 115.458 96.8263 114.583 94.2134 113.07C89.178 110.126 85.8038 104.761 85.8038 98.6387C85.8038 92.5165 89.178 87.1511 94.2134 84.2077C96.809 82.694 99.8545 81.8194 103.108 81.8194H171.838C175.091 81.8194 178.119 82.694 180.732 84.2077C185.768 87.1511 189.142 92.5165 189.142 98.6387C189.142 104.761 185.768 110.126 180.732 113.07C178.137 114.583 175.091 115.458 171.838 115.458H103.108Z" fill="#C9FF58"/>
<path d="M156.628 108.908C159.093 108.908 161.092 106.91 161.092 104.445C161.092 101.981 159.093 99.9833 156.628 99.9833C154.162 99.9833 152.164 101.981 152.164 104.445C152.164 106.91 154.162 108.908 156.628 108.908Z" fill="#C9FF58"/>
<path d="M168.446 98.1145C170.911 98.1145 172.91 96.1167 172.91 93.6523C172.91 91.1879 170.911 89.1901 168.446 89.1901C165.98 89.1901 163.981 91.1879 163.981 93.6523C163.981 96.1167 165.98 98.1145 168.446 98.1145Z" fill="#C9FF58"/>
<path d="M127.348 99.0494C127.348 101.125 125.67 102.802 123.593 102.802H120.115V106.279C120.115 108.354 118.437 110.032 116.36 110.032C114.284 110.032 112.606 108.354 112.606 106.279V102.802H109.127C107.051 102.802 105.373 101.125 105.373 99.0494C105.373 96.9739 107.051 95.2963 109.127 95.2963H112.606V91.82C112.606 89.7445 114.284 88.0669 116.36 88.0669C118.437 88.0669 120.115 89.7445 120.115 91.82V95.2963H123.593C125.67 95.2963 127.348 96.9739 127.348 99.0494Z" fill="#C9FF58"/>
<path d="M231.181 68.9307C231.526 68.9307 231.806 69.2104 231.806 69.5554V122.182C231.806 122.527 232.086 122.807 232.431 122.807H267.687C268.137 122.807 268.44 123.268 268.26 123.681L261.182 139.982C261.083 140.21 260.858 140.358 260.609 140.358H212.603C212.258 140.358 211.978 140.078 211.978 139.733V69.5554C211.978 69.2104 212.258 68.9307 212.603 68.9307H231.181Z" fill="#C9FF58"/>
</g>
<defs>
<filter id="filter0_d_15_1092" x="0.400002" y="0.900002" width="468.62" height="216.2" filterUnits="userSpaceOnUse" color-interpolation-filters="sRGB">
<feFlood flood-opacity="0" result="BackgroundImageFix"/>
<feColorMatrix in="SourceAlpha" type="matrix" values="0 0 0 0 0 0 0 0 0 0 0 0 0 0 0 0 0 0 127 0" result="hardAlpha"/>
<feOffset dy="4"/>
<feGaussianBlur stdDeviation="34.05"/>
<feComposite in2="hardAlpha" operator="out"/>
<feColorMatrix type="matrix" values="0 0 0 0 0.572549 0 0 0 0 1 0 0 0 0 0.309804 0 0 0 0.3 0"/>
<feBlend mode="normal" in2="BackgroundImageFix" result="effect1_dropShadow_15_1092"/>
<feBlend mode="normal" in="SourceGraphic" in2="effect1_dropShadow_15_1092" result="shape"/>
</filter>
</defs>
</svg>
